<svg width="17" height="17" fill="none" xmlns="http://www.w3.org/2000/svg"><path d="M16.015 9.131l.978-5.355a.489.489 0 00-.473-.57H3.448L3.031.923A1.114 1.114 0 001.933 0H.48a.481.481 0 100 .962h1.452a.16.16 0 01.152.128l2.221 12.202a2.084 2.084 0 103.135 2.627 2.084 2.084 0 00-.071-2.13h4.827a2.084 2.084 0 101.756-.962H5.198l-.41-2.245h9.495a1.765 1.765 0 001.733-1.45zm-9.279 5.78a1.122 1.122 0 11-2.244 0 1.122 1.122 0 012.244 0zm8.34 0a1.123 1.123 0 11-2.245 0 1.123 1.123 0 012.245 0zM3.625 4.17h12.318l-.875 4.794a.802.802 0 01-.785.657H4.619L3.625 4.17z" fill="#fff"/></svg>