<svg width="158" height="44" fill="none" xmlns="http://www.w3.org/2000/svg"><rect width="158" height="44" rx="22" fill="#000"/><path d="M59.233 27V16.818h3.56c.709 0 1.294.123 1.755.368.46.242.803.569 1.029.98.225.407.338.86.338 1.357 0 .437-.078.799-.234 1.084-.152.285-.355.51-.606.676a2.762 2.762 0 01-.81.368v.099c.31.02.624.13.939.328.315.199.578.484.79.855.212.372.319.826.319 1.363 0 .51-.117.969-.349 1.377-.231.407-.598.73-1.098.969-.5.239-1.152.358-1.954.358h-3.679zm1.233-1.094h2.446c.805 0 1.377-.155 1.715-.467.342-.315.512-.696.512-1.143 0-.345-.088-.663-.263-.955a1.907 1.907 0 00-.751-.706c-.325-.179-.71-.269-1.153-.269h-2.506v3.54zm0-4.613h2.287a2.24 2.24 0 001.004-.22c.302-.145.54-.35.716-.616a1.63 1.63 0 00.269-.934 1.55 1.55 0 00-.468-1.139c-.311-.315-.805-.472-1.481-.472h-2.327v3.38zM68.179 27v-7.636h1.174V27h-1.174zm.597-8.91a.834.834 0 01-.592-.233.75.75 0 01-.243-.561.75.75 0 01.243-.562.834.834 0 01.592-.234c.229 0 .424.078.587.234a.744.744 0 01.248.561.744.744 0 01-.248.562.817.817 0 01-.587.234zm3.899-1.272V27h-1.173V16.818h1.173zm3.322 0V27h-1.173V16.818h1.173zm5.35 10.341c-.735 0-1.37-.162-1.903-.487a3.27 3.27 0 01-1.228-1.372c-.285-.59-.428-1.276-.428-2.059 0-.782.143-1.471.428-2.068.288-.6.69-1.067 1.203-1.402.517-.338 1.12-.507 1.81-.507.397 0 .79.067 1.178.2.388.132.74.347 1.059.645.318.295.572.686.76 1.174.19.487.284 1.087.284 1.8v.497h-5.887v-1.015h4.694c0-.43-.087-.815-.259-1.153a1.95 1.95 0 00-.726-.8c-.311-.196-.68-.294-1.103-.294-.468 0-.872.116-1.214.348a2.29 2.29 0 00-.78.895 2.629 2.629 0 00-.273 1.183v.677c0 .576.099 1.065.298 1.466.202.398.482.701.84.91.358.205.774.308 1.248.308.308 0 .587-.043.835-.13a1.77 1.77 0 00.651-.397c.183-.179.323-.4.423-.666l1.133.318c-.119.385-.32.723-.601 1.014-.282.289-.63.514-1.044.677-.414.159-.88.238-1.397.238zm8.269-7.795v.994h-3.958v-.994h3.958zm-2.804-1.83h1.173v7.279c0 .33.048.58.144.745.1.163.225.272.378.328.156.053.32.08.492.08.13 0 .235-.007.318-.02l.2-.04.238 1.054c-.08.03-.19.06-.333.09a2.45 2.45 0 01-.542.05c-.332 0-.656-.072-.975-.214a1.937 1.937 0 01-.785-.652c-.206-.291-.308-.66-.308-1.103v-7.597zM94.5 27.16c-.736 0-1.37-.162-1.904-.487a3.27 3.27 0 01-1.228-1.372c-.285-.59-.427-1.276-.427-2.059 0-.782.142-1.471.427-2.068.288-.6.69-1.067 1.203-1.402.517-.338 1.12-.507 1.81-.507.398 0 .79.067 1.178.2.388.132.74.347 1.06.645.317.295.57.686.76 1.174.189.487.283 1.087.283 1.8v.497h-5.886v-1.015h4.693c0-.43-.086-.815-.259-1.153a1.949 1.949 0 00-.725-.8c-.312-.196-.68-.294-1.104-.294-.468 0-.872.116-1.213.348a2.288 2.288 0 00-.78.895 2.629 2.629 0 00-.274 1.183v.677c0 .576.1 1.065.298 1.466.202.398.482.701.84.91.358.205.774.308 1.248.308.308 0 .587-.043.835-.13.252-.089.47-.221.652-.397.182-.179.323-.4.422-.666l1.134.318a2.51 2.51 0 01-.602 1.014c-.282.289-.63.514-1.044.677-.414.159-.88.238-1.397.238zm4.947-.16v-7.636h1.133v1.153h.08c.139-.378.391-.684.756-.92a2.222 2.222 0 011.233-.353c.086 0 .194.002.323.005.129.004.227.009.293.015v1.193a3.492 3.492 0 00-.273-.044 2.703 2.703 0 00-.443-.035c-.371 0-.702.078-.994.233a1.712 1.712 0 00-.935 1.556V27h-1.173zm5.209 0v-7.636h1.173V27h-1.173zm.596-8.91a.834.834 0 01-.591-.233.749.749 0 01-.244-.561c0-.22.081-.407.244-.562a.834.834 0 01.591-.234c.229 0 .425.078.587.234a.743.743 0 01.249.561.743.743 0 01-.249.562.817.817 0 01-.587.234zm5.928 9.07c-.736 0-1.371-.163-1.904-.488a3.263 3.263 0 01-1.228-1.372c-.285-.59-.428-1.276-.428-2.059 0-.782.143-1.471.428-2.068.288-.6.689-1.067 1.203-1.402.517-.338 1.12-.507 1.81-.507.397 0 .79.067 1.178.2.388.132.741.347 1.059.645.318.295.571.686.76 1.174.189.487.284 1.087.284 1.8v.497h-5.887v-1.015h4.694c0-.43-.087-.815-.259-1.153a1.948 1.948 0 00-.726-.8c-.311-.196-.679-.294-1.103-.294-.468 0-.872.116-1.214.348a2.286 2.286 0 00-.78.895 2.632 2.632 0 00-.273 1.183v.677c0 .576.099 1.065.298 1.466.202.398.482.701.84.91.358.205.774.308 1.248.308.308 0 .587-.043.835-.13a1.77 1.77 0 00.651-.397c.183-.179.324-.4.423-.666l1.133.318a2.505 2.505 0 01-.601 1.014c-.282.289-.63.514-1.044.677-.414.159-.88.238-1.397.238zm-70.165-5.029l.978-5.355a.49.49 0 00-.473-.57H28.448l-.417-2.284A1.114 1.114 0 0026.933 13H25.48a.481.481 0 000 .962h1.452a.16.16 0 01.152.128l2.221 12.202a2.083 2.083 0 00.41 3.505 2.085 2.085 0 002.654-3.008h4.827a2.084 2.084 0 101.756-.962h-8.757l-.408-2.245h9.494a1.765 1.765 0 001.733-1.45zm-9.279 5.78a1.122 1.122 0 11-2.244 0 1.122 1.122 0 012.244 0zm8.34 0a1.123 1.123 0 11-2.245 0 1.123 1.123 0 012.245 0zM28.625 17.17h12.318l-.875 4.794a.802.802 0 01-.785.657h-9.664l-.994-5.451z" fill="#fff"/></svg>