<svg width="163" height="44" fill="none" xmlns="http://www.w3.org/2000/svg"><path d="M11.33 19.01c0-.86.63-1.29 1.89-1.29.54 0 1.57.02 3.09.06 1.68.08 2.95.12 3.81.12.7 0 1.55-.04 2.55-.12.68-.04 1.11-.06 1.29-.06 1.1.04 2.03.24 2.79.6.22.1.4.22.54.36.14.14.21.37.21.69 0 .44-.14.82-.42 1.14-.28.3-.62.45-1.02.45-.44 0-1.08-.06-1.92-.18-.74-.14-1.39-.21-1.95-.21-.54 0-.95.01-1.23.03-.06.66-.09 2.24-.09 4.74 0 2.98.09 6 .27 9.06l.06.87c0 .82-.47 1.23-1.41 1.23-.74 0-1.24-.17-1.5-.51-.26-.36-.39-.9-.39-1.62 0-1.42-.04-3.19-.12-5.31-.08-1.76-.12-3.01-.12-3.75 0-.5.06-2.03.18-4.59l-3.51.03c-1.12 0-1.9-.1-2.34-.3-.44-.22-.66-.7-.66-1.44zM31.678 35.3c0 .34-.13.64-.39.9s-.58.39-.96.39c-.6 0-1.04-.11-1.32-.33-.28-.24-.42-.67-.42-1.29 0-.74-.02-1.71-.06-2.91-.04-1-.06-1.84-.06-2.52 0-.32.02-.74.06-1.26.04-.48.06-.84.06-1.08-.06-.38-.21-.69-.45-.93-.24-.26-.55-.39-.93-.39-.18 0-.33-.08-.45-.24a.968.968 0 01-.18-.54c0-.46.18-.81.54-1.05.38-.24.83-.36 1.35-.36 1.08 0 1.83.64 2.25 1.92.52-.6 1.11-1.08 1.77-1.44.68-.38 1.33-.57 1.95-.57.74 0 1.41.2 2.01.6.62.4.93.94.93 1.62 0 .38-.17.77-.51 1.17-.32.4-.65.6-.99.6a.95.95 0 01-.48-.12c-.12-.1-.27-.24-.45-.42-.2-.2-.37-.34-.51-.42-.14-.1-.3-.15-.48-.15-.32 0-.62.05-.9.15-.28.1-.47.22-.57.36-.32.5-.56.95-.72 1.35-.14.4-.21.83-.21 1.29 0 .34-.01.61-.03.81l-.03 1.71c0 .26.01.55.03.87.02.32.04.56.06.72.06.54.09 1.06.09 1.56zm21.134-.24c0 .44-.24.81-.72 1.11-.46.3-.89.45-1.29.45-.76 0-1.37-.09-1.83-.27-.44-.2-.85-.56-1.23-1.08-.52.46-1.23.81-2.13 1.05-.9.22-1.73.33-2.49.33-1.24 0-2.26-.33-3.06-.99-.8-.68-1.2-1.67-1.2-2.97 0-.56.15-1.07.45-1.53.3-.48.71-.9 1.23-1.26.58-.38 1.24-.67 1.98-.87.74-.22 1.51-.33 2.31-.33.42 0 .92.08 1.5.24.58.16 1.03.33 1.35.51v-.48c0-1.08-.26-1.82-.78-2.22-.52-.42-1.36-.63-2.52-.63-.34 0-.68.07-1.02.21-.32.14-.69.33-1.11.57-.56.3-1.09.45-1.59.45-.18 0-.35-.12-.51-.36-.16-.26-.24-.49-.24-.69 0-.58.27-1.08.81-1.5.56-.42 1.22-.73 1.98-.93.76-.22 1.44-.33 2.04-.33.6 0 1.29.12 2.07.36.78.22 1.42.53 1.92.93.6.52 1.06 1.13 1.38 1.83.34.68.51 1.43.51 2.25 0 .26-.02.65-.06 1.17-.04.56-.06 1.04-.06 1.44 0 .18-.02.45-.06.81-.04.44-.06.79-.06 1.05 0 .24.09.45.27.63.18.16.39.24.63.24l.84-.03a.6.6 0 01.51.24c.12.16.18.36.18.6zm-9.66-.78c.86 0 1.58-.09 2.16-.27.58-.18 1.28-.51 2.1-.99.08-.34.13-.79.15-1.35-1.1-.52-2.01-.78-2.73-.78-.82 0-1.55.15-2.19.45-.64.3-.96.83-.96 1.59 0 .38.16.7.48.96.32.26.65.39.99.39zm11.415-8.34c-.16-.12-.29-.24-.39-.36-.1-.14-.15-.38-.15-.72 0-.38.13-.67.39-.87.28-.22.6-.33.96-.33.7 0 1.3.18 1.8.54.52.36.9.86 1.14 1.5.44-.82 1-1.38 1.68-1.68.68-.32 1.62-.48 2.82-.48.48 0 .97.15 1.47.45.52.28.99.63 1.41 1.05.34.44.63.99.87 1.65.24.64.36 1.22.36 1.74 0 .3-.02.79-.06 1.47-.04.72-.06 1.29-.06 1.71 0 1.4.27 2.26.81 2.58.08.04.23.09.45.15s.38.12.48.18c.12.06.18.15.18.27.02.48-.16.88-.54 1.2-.36.3-.8.45-1.32.45-.78 0-1.39-.21-1.83-.63-.44-.42-.75-1.06-.93-1.92-.1-.32-.15-.79-.15-1.41 0-.34.02-.89.06-1.65.06-.6.09-1.24.09-1.92 0-.7-.2-1.31-.6-1.83-.4-.54-.95-.81-1.65-.81-.42 0-.86.13-1.32.39-.46.24-.78.54-.96.9a6.7 6.7 0 00-.6 1.89 18.79 18.79 0 00-.36 3.57c0 .28.02.82.06 1.62v.45c0 .22-.03.43-.09.63-.04.2-.12.38-.24.54-.08.08-.23.16-.45.24-.22.08-.41.12-.57.12-.28 0-.63-.12-1.05-.36-.42-.24-.67-.51-.75-.81l-.03-.42c0-.16.02-.4.06-.72.24-1.4.36-2.62.36-3.66 0-.46-.01-.81-.03-1.05l-.03-1.38c0-.42-.12-.82-.36-1.2-.24-.4-.55-.76-.93-1.08zm24.756 3.69c.8.46 1.36.92 1.68 1.38.32.44.48 1.02.48 1.74s-.21 1.36-.63 1.92c-.42.54-.96.96-1.62 1.26-.48.22-1.08.39-1.8.51-.7.12-1.25.18-1.65.18-.7 0-1.46-.13-2.28-.39-.82-.26-1.52-.63-2.1-1.11-.56-.48-.84-1.04-.84-1.68 0-.4.13-.71.39-.93.26-.24.6-.36 1.02-.36.34 0 .7.24 1.08.72.38.42.82.74 1.32.96.52.22 1.03.33 1.53.33 1.9 0 2.85-.43 2.85-1.29 0-.18-.06-.35-.18-.51-.12-.18-.23-.3-.33-.36-.18-.14-.43-.26-.75-.36-.32-.1-.64-.18-.96-.24l-.72-.18c-.16-.04-.5-.11-1.02-.21-.5-.1-.98-.27-1.44-.51-.76-.36-1.38-.8-1.86-1.32-.46-.52-.69-1.19-.69-2.01 0-.46.11-.92.33-1.38.24-.48.56-.84.96-1.08.6-.38 1.26-.67 1.98-.87.72-.2 1.39-.3 2.01-.3.5 0 1.06.05 1.68.15.64.1 1.1.24 1.38.42.52.28.9.57 1.14.87.24.3.36.68.36 1.14 0 .22-.05.44-.15.66-.1.2-.22.34-.36.42-.32.12-.6.18-.84.18-.18 0-.33-.03-.45-.09-.12-.08-.23-.16-.33-.24l-.15-.15c-.26-.28-.55-.5-.87-.66-.32-.16-.79-.24-1.41-.24-.4 0-.79.06-1.17.18-.36.1-.64.23-.84.39-.16.12-.27.23-.33.33-.06.08-.09.19-.09.33 0 .56.56.97 1.68 1.23 1.14.26 1.74.4 1.8.42.12.04.45.14.99.3.56.16.96.31 1.2.45zm13.464-8.91c.22 0 .38.03.48.09.24.14.45.33.63.57.18.22.27.54.27.96-.04.64-.29 1.08-.75 1.32-.4.2-.94.3-1.62.3-.46 0-.83-.17-1.11-.51-.28-.34-.42-.77-.42-1.29 0-.6.17-1.29.51-2.07.36-.8.71-1.41 1.05-1.83.24-.32.53-.59.87-.81.34-.22.63-.33.87-.33.46 0 .74.07.84.21.12.14.18.41.18.81 0 .1-.1.25-.3.45l-.33.33c-.32.28-.52.48-.6.6-.34.48-.57.88-.69 1.2h.12zm16.931 11.7c.38 0 .66.15.84.45.2.28.3.59.3.93 0 .42-.07.72-.21.9-.12.16-.36.33-.72.51-.84.4-1.88.72-3.12.96-1.24.24-2.57.36-3.99.36-1.78 0-3.09-.3-3.93-.9-.82-.6-1.33-1.32-1.53-2.16-.18-.86-.27-1.98-.27-3.36 0-1.48.06-2.93.18-4.35.12-1.44.33-3.27.63-5.49.14-.96.52-1.65 1.14-2.07.62-.44 1.3-.66 2.04-.66.62 0 1.63-.02 3.03-.06l2.61-.03c1.08 0 1.86.03 2.34.09.6.12 1.04.26 1.32.42.3.14.45.39.45.75 0 .4-.14.79-.42 1.17-.26.38-.66.57-1.2.57-.62 0-1.51-.04-2.67-.12-1.16-.08-2.03-.12-2.61-.12-.5 0-.99.03-1.47.09-.56.04-.96.11-1.2.21-.24.1-.38.27-.42.51-.28 2.06-.42 3.58-.42 4.56.46.06.91.09 1.35.09.56 0 1.16-.03 1.8-.09.64-.06 1.05-.1 1.23-.12 1.06-.1 1.97-.15 2.73-.15.44 0 .77.08.99.24.24.16.36.38.36.66 0 .44-.12.78-.36 1.02-.22.24-.62.42-1.2.54-.7.14-1.57.25-2.61.33-1.02.08-2.02.12-3 .12-.34 0-.81-.02-1.41-.06-.06 1.22-.09 2.35-.09 3.39 0 1.42.94 2.13 2.82 2.13 1 0 1.83-.07 2.49-.21.66-.14 1.42-.34 2.28-.6.8-.3 1.44-.45 1.92-.45zm18.443-14.91c.4 0 .7.13.9.39.22.24.33.57.33.99 0 .46-.12.98-.36 1.56-.7.64-1.49 1.49-2.37 2.55-.88 1.06-1.92 2.38-3.12 3.96 1.1 1.8 1.99 3.16 2.67 4.08.68.9 1.33 1.52 1.95 1.86.26.14.57.26.93.36.46.14.8.28 1.02.42.22.14.33.35.33.63 0 .56-.26.98-.78 1.26-.52.26-1.15.39-1.89.39-.96 0-1.91-.53-2.85-1.59-.92-1.06-2.03-2.64-3.33-4.74a176.54 176.54 0 01-3.15 4.05c-.84 1.02-1.6 1.85-2.28 2.49-.14.12-.34.22-.6.3-.26.06-.48.09-.66.09-.44 0-.82-.18-1.14-.54-.3-.36-.46-.73-.48-1.11 0-.06.11-.26.33-.6.22-.34.56-.73 1.02-1.17.5-.38 1.15-1.06 1.95-2.04.82-.98 1.92-2.37 3.3-4.17l-.87-1.38c-.76-1.2-1.32-2.06-1.68-2.58-.36-.52-.7-.91-1.02-1.17-.32-.28-.66-.42-1.02-.42-.12 0-.31.04-.57.12-.24.06-.44.09-.6.09-.22 0-.42-.04-.6-.12-.5-.22-.75-.55-.75-.99 0-.2.04-.37.12-.51.16-.36.49-.69.99-.99.52-.32 1.22-.48 2.1-.48.82 0 1.53.21 2.13.63.6.42 1.15.99 1.65 1.71.52.72 1.23 1.85 2.13 3.39 1.98-2.68 3.38-4.48 4.2-5.4.48-.56.86-.92 1.14-1.08.28-.16.59-.24.93-.24zm5.09 8.55c-.18 0-.35.02-.51.06-.16.02-.32.03-.48.03-.22 0-.43-.1-.63-.3-.18-.2-.27-.38-.27-.54 0-.52.26-.92.78-1.2.52-.3 1.05-.45 1.59-.45.46 0 .93.16 1.41.48.5.3.87.69 1.11 1.17a4.49 4.49 0 011.92-1.35c.76-.28 1.55-.42 2.37-.42.92 0 1.77.29 2.55.87.8.58 1.43 1.32 1.89 2.22.46.88.69 1.76.69 2.64 0 .86-.09 1.63-.27 2.31-.18.66-.5 1.33-.96 2.01-.52.72-1.22 1.31-2.1 1.77-.86.46-1.89.69-3.09.69-.32 0-.71-.08-1.17-.24-.46-.18-.84-.37-1.14-.57-.14 1.36-.21 2.54-.21 3.54 0 .6.03 1.17.09 1.71.04.64.06 1.1.06 1.38 0 .44-.15.76-.45.96-.3.22-.63.33-.99.33-.72 0-1.2-.2-1.44-.6-.22-.38-.33-.93-.33-1.65.08-1.72.18-3.31.3-4.77.12-1.8.18-4.58.18-8.34 0-.36-.07-.74-.21-1.14-.14-.4-.37-.6-.69-.6zm3.81 6.21c.1.38.38.7.84.96.48.24.91.36 1.29.36 1.14 0 1.99-.31 2.55-.93.42-.44.69-.87.81-1.29.14-.42.21-1.09.21-2.01 0-.72-.14-1.32-.42-1.8-.28-.5-.62-.86-1.02-1.08-.4-.24-.78-.36-1.14-.36-.82 0-1.49.25-2.01.75-.5.48-.82 1.14-.96 1.98-.1.66-.15 1.8-.15 3.42zm23.259-5.4c.16.28.29.69.39 1.23.1.52.15.99.15 1.41 0 .78-.17 1.89-.51 3.33-1.38 2.52-3.42 3.78-6.12 3.78-1 0-2.02-.33-3.06-.99-1.04-.66-1.76-1.42-2.16-2.28-.54-1.72-.81-2.81-.81-3.27 0-.8.17-1.65.51-2.55.36-.9.81-1.68 1.35-2.34.34-.46.95-.85 1.83-1.17.88-.34 1.68-.51 2.4-.51 1.4 0 2.59.27 3.57.81.98.52 1.8 1.37 2.46 2.55zm-2.61 4.83c.1-.26.15-.93.15-2.01 0-.58-.11-1.15-.33-1.71-.2-.56-.5-1.04-.9-1.44-.04-.04-.15-.1-.33-.18-.18-.1-.43-.19-.75-.27-.3-.1-.65-.15-1.05-.15-1.12 0-1.94.45-2.46 1.35-.52.9-.78 1.92-.78 3.06 0 .2.05.58.15 1.14.12.56.22.91.3 1.05.06.14.21.34.45.6.26.24.57.46.93.66.38.18.77.27 1.17.27.9 0 1.62-.21 2.16-.63.54-.44.97-1.02 1.29-1.74z" fill="#000"/><path d="M7.226 10.573V8.222l.124-.036.58 2.161-.704.226z" stroke="#000" stroke-width="5"/></svg>