<svg width="29" height="29" fill="none" xmlns="http://www.w3.org/2000/svg"><path d="M8.217 0h11.9c4.533 0 8.216 3.683 8.216 8.217v11.9a8.216 8.216 0 01-8.216 8.216h-11.9C3.683 28.333 0 24.65 0 20.117v-11.9A8.217 8.217 0 018.217 0m-.284 2.833a5.1 5.1 0 00-5.1 5.1V20.4c0 2.82 2.281 5.1 5.1 5.1H20.4a5.1 5.1 0 005.1-5.1V7.933c0-2.819-2.28-5.1-5.1-5.1H7.933zm13.671 2.125a1.77 1.77 0 110 3.542 1.77 1.77 0 010-3.542zm-7.437 2.125a7.083 7.083 0 110 14.166 7.083 7.083 0 010-14.166m0 2.834a4.25 4.25 0 100 8.499 4.25 4.25 0 000-8.5z" fill="#fff"/></svg>