<svg width="1370" height="73" fill="none" xmlns="http://www.w3.org/2000/svg"><rect y="10" width="1370" height="63" rx="10" fill="#A88400"/><path stroke="#000" stroke-width="3" d="M22.5 10v42"/><path stroke="#000" d="M40.5 0v42m19-42v42m19-42v42m19-42v42m19-42v42m19-42v42"/><path stroke="#000" stroke-width="3" d="M155.5 10v42"/><path stroke="#000" d="M173.5 0v42m19-42v42m19-42v42m19-42v42m19-42v42m19-42v42m19-42v42m19-42v42m19-42v42m19-42v42m19-42v42m19-42v42m19-42v42m19-42v42m19-42v42m19-42v42"/><path stroke="#000" stroke-width="3" d="M478.5 10v42"/><path stroke="#000" d="M496.5 0v42m19-42v42m19-42v42m19-42v42m19-42v42m19-42v42m19-42v42m19-42v42m19-42v42m19-42v42m19-42v42m19-42v42m19-42v42m19-42v42m19-42v42m19-42v42"/><path stroke="#000" stroke-width="3" d="M801.5 10v42"/><path stroke="#000" d="M819.5 0v42m19-42v42m19-42v42m19-42v42m19-42v42m19-42v42m19-42v42m19-42v42m19-42v42m19-42v42m19-42v42m19-42v42m19-42v42m19-42v42m19-42v42m19-42v42m19-42v42m19-42v42"/><path stroke="#000" stroke-width="3" d="M1162.5 10v42"/><path stroke="#000" d="M1180.5 0v42m19-42v42m19-42v42m19-42v42m19-42v42m19-42v42m19-42v42m19-42v42m19-42v42m19-42v42"/><path d="M142.046 58.818V69h-1.844v-8.387h-.06l-2.381 1.521v-1.69l2.53-1.626h1.755zm6.12-.139a4.2 4.2 0 011.422.258c.464.166.882.438 1.253.816.371.374.666.877.885 1.506.219.63.328 1.409.328 2.337.003.875-.09 1.657-.278 2.346-.186.687-.453 1.267-.801 1.74a3.527 3.527 0 01-1.258 1.084 3.607 3.607 0 01-1.655.373c-.643 0-1.213-.126-1.71-.378a3.215 3.215 0 01-1.199-1.034 3.279 3.279 0 01-.561-1.501h1.814c.093.404.282.726.567.964.288.236.651.353 1.089.353.706 0 1.249-.306 1.63-.92.382-.613.572-1.464.572-2.555h-.069a2.62 2.62 0 01-.632.756c-.258.209-.552.37-.88.482a3.13 3.13 0 01-1.034.17 3.085 3.085 0 01-1.611-.428 3.118 3.118 0 01-1.128-1.174c-.275-.497-.414-1.065-.418-1.705 0-.663.153-1.258.458-1.785a3.32 3.32 0 011.287-1.253c.55-.308 1.193-.459 1.929-.452zm.005 1.491c-.358 0-.681.088-.969.264a1.865 1.865 0 00-.676.706 2.01 2.01 0 00-.244.99c.003.36.084.689.244.984a1.806 1.806 0 001.625.96c.269 0 .519-.052.751-.155.232-.103.434-.245.607-.427.175-.186.311-.397.407-.632.1-.235.148-.484.144-.746 0-.348-.082-.67-.248-.964a1.924 1.924 0 00-.671-.711 1.77 1.77 0 00-.97-.269zm9.193 8.97c-.716 0-1.353-.123-1.909-.369-.554-.245-.991-.586-1.313-1.024a2.66 2.66 0 01-.512-1.516h1.869c.017.275.108.515.274.72.165.203.386.36.661.473.275.113.583.169.925.169.364 0 .687-.063.969-.189a1.59 1.59 0 00.661-.537c.159-.229.237-.492.234-.79a1.371 1.371 0 00-.239-.816 1.59 1.59 0 00-.706-.551c-.305-.133-.672-.2-1.103-.2h-.9v-1.42h.9c.354 0 .664-.061.929-.184.269-.123.479-.295.632-.517a1.34 1.34 0 00.224-.78 1.364 1.364 0 00-.194-.752 1.318 1.318 0 00-.552-.502 1.816 1.816 0 00-.83-.179c-.312 0-.6.057-.866.17a1.577 1.577 0 00-.641.482c-.162.205-.248.45-.258.736h-1.775a2.58 2.58 0 01.492-1.502 3.17 3.17 0 011.273-1.014c.53-.245 1.125-.368 1.784-.368.68 0 1.27.128 1.77.383.504.252.894.591 1.169 1.019.275.427.412.9.412 1.417.004.573-.165 1.054-.507 1.442-.338.387-.782.641-1.332.76v.08c.716.1 1.264.364 1.645.795.385.428.575.96.572 1.596 0 .57-.162 1.08-.487 1.531-.322.448-.766.8-1.332 1.054-.564.256-1.21.383-1.939.383zm9.119 0c-.716 0-1.352-.123-1.909-.369-.554-.245-.991-.586-1.313-1.024a2.66 2.66 0 01-.512-1.516h1.869c.017.275.108.515.274.72.166.203.386.36.661.473.275.113.583.169.925.169.364 0 .688-.063.969-.189a1.59 1.59 0 00.661-.537 1.32 1.32 0 00.234-.79 1.378 1.378 0 00-.238-.816 1.601 1.601 0 00-.706-.551c-.305-.133-.673-.2-1.104-.2h-.9v-1.42h.9a2.2 2.2 0 00.93-.184c.268-.123.478-.295.631-.517a1.34 1.34 0 00.224-.78 1.364 1.364 0 00-.194-.752 1.306 1.306 0 00-.552-.502 1.813 1.813 0 00-.83-.179c-.312 0-.6.057-.865.17a1.574 1.574 0 00-.642.482c-.162.205-.248.45-.258.736h-1.775a2.58 2.58 0 01.492-1.502 3.177 3.177 0 011.273-1.014c.53-.245 1.125-.368 1.785-.368.679 0 1.269.128 1.769.383.504.252.894.591 1.169 1.019.275.427.412.9.412 1.417.004.573-.165 1.054-.507 1.442-.338.387-.782.641-1.332.76v.08c.716.1 1.264.364 1.646.795.384.428.575.96.571 1.596 0 .57-.162 1.08-.487 1.531-.321.448-.766.8-1.332 1.054-.564.256-1.21.383-1.939.383zM9.046 55.818V66H7.202v-8.387h-.06l-2.381 1.521v-1.69l2.53-1.626h1.755zm6.12-.139a4.2 4.2 0 011.422.258c.464.166.882.438 1.253.816.371.374.666.877.885 1.506.219.63.328 1.409.328 2.337.003.875-.09 1.657-.278 2.347-.186.686-.453 1.266-.8 1.74a3.53 3.53 0 01-1.259 1.083 3.61 3.61 0 01-1.655.373c-.643 0-1.213-.126-1.71-.378a3.212 3.212 0 01-1.199-1.034 3.287 3.287 0 01-.561-1.501h1.814c.093.404.282.726.567.964.288.236.651.353 1.089.353.706 0 1.25-.306 1.63-.92.382-.613.572-1.464.572-2.555h-.07a2.617 2.617 0 01-.63.756c-.26.209-.553.37-.88.482-.326.113-.67.17-1.035.17a3.08 3.08 0 01-1.61-.428 3.122 3.122 0 01-1.13-1.174c-.274-.497-.414-1.065-.417-1.705 0-.663.153-1.258.458-1.785a3.32 3.32 0 011.287-1.253c.55-.308 1.193-.459 1.93-.452zm.005 1.491c-.358 0-.68.088-.97.264a1.87 1.87 0 00-.675.706 2.017 2.017 0 00-.244.99c.003.36.085.689.244.984.162.295.382.528.66.7.283.173.604.26.965.26a1.832 1.832 0 001.358-.582c.175-.186.311-.397.407-.632.1-.235.148-.484.144-.746 0-.348-.082-.67-.248-.964a1.919 1.919 0 00-.671-.711 1.769 1.769 0 00-.97-.269zm9.302 9.024c-.819 0-1.521-.207-2.108-.622-.583-.417-1.032-1.019-1.347-1.804-.312-.79-.468-1.739-.468-2.849.004-1.11.161-2.055.473-2.834.315-.782.764-1.379 1.347-1.79.587-.41 1.288-.616 2.103-.616.815 0 1.516.206 2.103.616.587.411 1.036 1.008 1.347 1.79.315.782.473 1.727.473 2.834 0 1.114-.158 2.065-.473 2.854-.311.785-.76 1.385-1.347 1.8-.583.414-1.284.62-2.103.62zm0-1.556c.636 0 1.139-.313 1.506-.94.372-.63.557-1.556.557-2.779 0-.809-.084-1.488-.253-2.038-.17-.55-.408-.965-.716-1.243a1.568 1.568 0 00-1.094-.423c-.633 0-1.133.315-1.501.945-.368.626-.554 1.546-.557 2.759-.003.812.078 1.495.243 2.048.17.554.408.971.716 1.253.309.279.675.418 1.099.418zm9.338 1.556c-.819 0-1.521-.207-2.108-.622-.583-.417-1.032-1.019-1.347-1.804-.312-.79-.468-1.739-.468-2.849.004-1.11.161-2.055.473-2.834.314-.782.764-1.379 1.347-1.79.587-.41 1.288-.616 2.103-.616.815 0 1.516.206 2.103.616.587.411 1.036 1.008 1.347 1.79.315.782.472 1.727.472 2.834 0 1.114-.157 2.065-.472 2.854-.311.785-.76 1.385-1.347 1.8-.583.414-1.284.62-2.103.62zm0-1.556c.636 0 1.138-.313 1.506-.94.371-.63.557-1.556.557-2.779 0-.809-.084-1.488-.253-2.038-.17-.55-.408-.965-.716-1.243a1.568 1.568 0 00-1.094-.423c-.633 0-1.134.315-1.502.945-.367.626-.553 1.546-.556 2.759-.004.812.078 1.495.243 2.048.17.554.408.971.716 1.253.308.279.675.418 1.099.418zm431.235-5.82V69h-1.844v-8.387h-.06l-2.381 1.521v-1.69l2.53-1.626h1.755zm6.12-.139a4.2 4.2 0 011.422.258c.464.166.882.438 1.253.816.371.374.666.877.885 1.506.219.63.328 1.409.328 2.337.003.875-.09 1.657-.278 2.346-.186.687-.453 1.267-.801 1.74a3.527 3.527 0 01-1.258 1.084 3.607 3.607 0 01-1.655.373c-.643 0-1.213-.126-1.71-.378a3.215 3.215 0 01-1.199-1.034 3.279 3.279 0 01-.561-1.501h1.814c.093.404.282.726.567.964.288.236.651.353 1.089.353.706 0 1.249-.306 1.63-.92.382-.613.572-1.464.572-2.555h-.069a2.62 2.62 0 01-.632.756c-.258.209-.552.37-.88.482a3.13 3.13 0 01-1.034.17 3.085 3.085 0 01-1.611-.428 3.118 3.118 0 01-1.128-1.174c-.275-.497-.414-1.065-.418-1.705 0-.663.153-1.258.458-1.785a3.32 3.32 0 011.287-1.253c.55-.308 1.193-.459 1.929-.452zm.005 1.491c-.358 0-.681.088-.969.264a1.865 1.865 0 00-.676.706 2.01 2.01 0 00-.244.99c.003.36.084.689.244.984a1.806 1.806 0 001.625.96c.269 0 .519-.052.751-.155.232-.103.434-.245.607-.427.175-.186.311-.397.407-.632.1-.235.148-.484.144-.746 0-.348-.082-.67-.248-.964a1.924 1.924 0 00-.671-.711 1.77 1.77 0 00-.97-.269zm5.355 6.94v-1.466l4.32-6.826h1.223v2.088h-.746l-2.908 4.609v.08h6.03v1.516h-7.919zm4.857 1.89v-2.337l.02-.656v-7.189h1.74V69h-1.76zm8.186-10.321c.487.003.961.09 1.421.258.464.166.882.438 1.253.816.371.374.666.877.885 1.506.219.63.328 1.409.328 2.337.004.875-.089 1.657-.278 2.346-.186.687-.453 1.267-.801 1.74a3.533 3.533 0 01-1.257 1.084 3.614 3.614 0 01-1.656.373c-.643 0-1.213-.126-1.71-.378a3.212 3.212 0 01-1.198-1.034 3.29 3.29 0 01-.562-1.501h1.815c.092.404.281.726.566.964.289.236.652.353 1.089.353.706 0 1.25-.306 1.631-.92.381-.613.572-1.464.572-2.555h-.07a2.617 2.617 0 01-.631.756 2.88 2.88 0 01-.88.482 3.13 3.13 0 01-1.035.17 3.08 3.08 0 01-1.61-.428 3.128 3.128 0 01-1.129-1.174c-.275-.497-.414-1.065-.417-1.705 0-.663.152-1.258.457-1.785.308-.53.737-.948 1.288-1.253.55-.308 1.193-.459 1.929-.452zm.005 1.491c-.358 0-.682.088-.97.264-.285.172-.51.408-.676.706a2.022 2.022 0 00-.244.99c.004.36.085.689.244.984.162.295.383.528.661.7.282.173.603.26.965.26a1.863 1.863 0 001.357-.582c.176-.186.311-.397.408-.632.099-.235.147-.484.144-.746 0-.348-.083-.67-.249-.964a1.916 1.916 0 00-.671-.711 1.77 1.77 0 00-.969-.269zm298.472-1.352V69h-1.844v-8.387h-.06l-2.381 1.521v-1.69l2.53-1.626h1.755zm6.12-.139a4.2 4.2 0 011.422.258c.464.166.882.438 1.253.816.371.374.666.877.885 1.506.219.63.328 1.409.328 2.337.003.875-.09 1.657-.278 2.346-.186.687-.453 1.267-.801 1.74a3.527 3.527 0 01-1.258 1.084 3.607 3.607 0 01-1.655.373c-.643 0-1.213-.126-1.71-.378a3.215 3.215 0 01-1.199-1.034 3.279 3.279 0 01-.561-1.501h1.814c.093.404.282.726.567.964.288.236.651.353 1.089.353.706 0 1.249-.306 1.63-.92.382-.613.572-1.464.572-2.555h-.069a2.62 2.62 0 01-.632.756c-.258.209-.552.37-.88.482a3.13 3.13 0 01-1.034.17 3.085 3.085 0 01-1.611-.428 3.118 3.118 0 01-1.128-1.174c-.275-.497-.414-1.065-.418-1.705 0-.663.153-1.258.458-1.785a3.32 3.32 0 011.287-1.253c.55-.308 1.193-.459 1.929-.452zm.005 1.491c-.358 0-.681.088-.969.264a1.865 1.865 0 00-.676.706 2.01 2.01 0 00-.244.99c.003.36.084.689.244.984a1.806 1.806 0 001.625.96c.269 0 .519-.052.751-.155.232-.103.434-.245.607-.427.175-.186.311-.397.407-.632.1-.235.148-.484.144-.746 0-.348-.082-.67-.248-.964a1.924 1.924 0 00-.671-.711 1.77 1.77 0 00-.97-.269zm9.078 8.97c-.663 0-1.256-.125-1.78-.374a3.174 3.174 0 01-1.247-1.034 2.738 2.738 0 01-.488-1.501h1.79c.033.417.214.759.542 1.024.328.262.723.393 1.183.393.362 0 .683-.083.965-.249.282-.166.504-.396.666-.69.162-.296.242-.632.239-1.01a2.037 2.037 0 00-.244-1.024 1.827 1.827 0 00-.681-.701 1.9 1.9 0 00-.994-.259 2.37 2.37 0 00-.9.17 1.84 1.84 0 00-.701.457l-1.666-.274.532-5.25h5.906v1.541h-4.38l-.293 2.7h.06c.189-.222.456-.406.8-.552a2.83 2.83 0 011.134-.224c.616 0 1.166.146 1.65.438.484.288.865.686 1.144 1.193.278.507.417 1.087.417 1.74 0 .673-.155 1.273-.467 1.8a3.3 3.3 0 01-1.288 1.238c-.546.298-1.179.447-1.899.447zm5.136-2.03v-1.466l4.32-6.826h1.223v2.088h-.745l-2.909 4.609v.08h6.031v1.516h-7.92zm4.857 1.89v-2.337l.02-.656v-7.189h1.74V69h-1.76zm335.808-9.182V70h-1.85v-8.387h-.06l-2.38 1.521v-1.69l2.53-1.626h1.76zm6.12-.139c.48.003.96.09 1.42.258.46.166.88.438 1.25.816.37.374.67.877.89 1.506.21.63.32 1.409.32 2.337.01.875-.09 1.657-.27 2.346-.19.687-.46 1.267-.8 1.74-.35.474-.77.836-1.26 1.084-.49.249-1.05.373-1.66.373-.64 0-1.21-.126-1.71-.378a3.289 3.289 0 01-1.2-1.034c-.3-.437-.49-.938-.56-1.501h1.82c.09.404.28.726.56.964.29.236.65.353 1.09.353.71 0 1.25-.306 1.63-.92.38-.613.57-1.464.57-2.555h-.07c-.16.292-.37.544-.63.756-.26.209-.55.37-.88.482a3.1 3.1 0 01-1.03.17c-.6 0-1.13-.143-1.61-.428a3.093 3.093 0 01-1.13-1.174c-.28-.497-.41-1.065-.42-1.705 0-.663.15-1.258.46-1.785.31-.53.74-.948 1.29-1.253.55-.308 1.19-.459 1.93-.452zm0 1.491a1.828 1.828 0 00-1.64.97c-.17.295-.25.625-.25.99.01.36.09.689.25.984a1.794 1.794 0 001.62.96 1.875 1.875 0 001.36-.582c.17-.186.31-.397.41-.632.1-.235.14-.484.14-.746 0-.348-.08-.67-.25-.964a1.86 1.86 0 00-.67-.711c-.28-.18-.6-.269-.97-.269zm9.27 8.97a4.333 4.333 0 01-1.43-.254 3.39 3.39 0 01-1.25-.82c-.37-.382-.67-.887-.89-1.517-.22-.633-.32-1.417-.32-2.352 0-.871.09-1.649.28-2.331.18-.683.45-1.26.8-1.73a3.56 3.56 0 011.26-1.084 3.596 3.596 0 011.65-.373c.64 0 1.21.126 1.7.378.5.252.9.596 1.21 1.034.3.434.49.925.56 1.471h-1.81a1.675 1.675 0 00-.57-.934c-.29-.236-.65-.353-1.09-.353-.7 0-1.25.306-1.63.92-.38.613-.57 1.455-.57 2.525h.07c.16-.291.37-.542.63-.75.26-.21.55-.37.88-.483.32-.116.67-.174 1.04-.174.59 0 1.13.143 1.6.428.48.285.86.678 1.13 1.178.28.497.42 1.067.42 1.71 0 .67-.15 1.271-.46 1.805-.31.53-.74.948-1.29 1.253-.55.305-1.19.456-1.92.452zm-.01-1.492a1.827 1.827 0 001.64-.975c.17-.298.25-.633.25-1.004 0-.364-.08-.694-.24-.99a1.834 1.834 0 00-.66-.7 1.829 1.829 0 00-.97-.259 1.817 1.817 0 00-1.35.582 1.9 1.9 0 00-.41.626c-.1.236-.15.487-.15.756 0 .355.09.681.25.98.16.298.38.536.67.715.28.18.61.269.97.269zm9.5-8.83V70h-1.85v-8.387h-.06l-2.38 1.521v-1.69l2.53-1.626h1.76z" fill="#000"/></svg>